<?xml version="1.0" encoding="UTF-8" standalone="no"?>
<svg
   xmlns:dc="http://purl.org/dc/elements/1.1/"
   xmlns:cc="http://creativecommons.org/ns#"
   xmlns:rdf="http://www.w3.org/1999/02/22-rdf-syntax-ns#"
   xmlns:svg="http://www.w3.org/2000/svg"
   xmlns="http://www.w3.org/2000/svg"
   xmlns:sodipodi="http://sodipodi.sourceforge.net/DTD/sodipodi-0.dtd"
   xmlns:inkscape="http://www.inkscape.org/namespaces/inkscape"
   version="1.1"
   viewBox="0.0 0.0 300.0 200.0"
   fill="none"
   stroke="none"
   stroke-linecap="square"
   stroke-miterlimit="10"
   id="svg3397"
   inkscape:version="0.91 r13725"
   sodipodi:docname="mapakniznic.sk logo.svg">
  <metadata
     id="metadata3418">
    <rdf:RDF>
      <cc:Work
         rdf:about="">
        <dc:format>image/svg+xml</dc:format>
        <dc:type
           rdf:resource="http://purl.org/dc/dcmitype/StillImage" />
      </cc:Work>
    </rdf:RDF>
  </metadata>
  <defs
     id="defs3416" />
  <sodipodi:namedview
     pagecolor="#ffffff"
     bordercolor="#666666"
     borderopacity="1"
     objecttolerance="10"
     gridtolerance="10"
     guidetolerance="10"
     inkscape:pageopacity="0"
     inkscape:pageshadow="2"
     inkscape:window-width="1280"
     inkscape:window-height="751"
     id="namedview3414"
     showgrid="false"
     inkscape:zoom="0.48525203"
     inkscape:cx="144.85169"
     inkscape:cy="85.229816"
     inkscape:window-x="0"
     inkscape:window-y="1"
     inkscape:window-maximized="1"
     inkscape:current-layer="g3402" />
  <clipPath
     id="p.0">
    <path
       d="m0 0l300.0 0l0 200.0l-300.0 0l0 -200.0z"
       clip-rule="nonzero"
       id="path3400" />
  </clipPath>
  <g
     clip-path="url(#p.0)"
     id="g3402">
    <g
       id="g3420"
       transform="matrix(1.1208409,0,0,1.1208409,-18.943533,-11.782013)">
      <path
         id="path3404"
         d="m 0,0 300,0 0,200 -300,0 z"
         inkscape:connector-curvature="0"
         style="fill:#000000;fill-opacity:0;fill-rule:nonzero" />
      <path
         id="path3406"
         d="m 43.046104,-4.9994936 215.905516,0 0,120.8818936 -215.905516,0 z"
         inkscape:connector-curvature="0"
         style="fill:#000000;fill-opacity:0;fill-rule:nonzero" />
      <path
         sodipodi:nodetypes="scccscsccccscscscccscssccssscscsccccscccsccccscccccscssccssccccscscsscsccscscccscccsccsssscccscscccscscccccscccsccccscccssccscscsscssccssccccscscsscsccscscccscccsccssssccc"
         style="fill:#000000;fill-rule:nonzero"
         inkscape:connector-curvature="0"
         id="path3408"
         d="M 125.88985,78.106125 126.2961,80.028 c 0,0.8125 -0.42187,1.776042 -1.26562,2.890625 -2.23958,2.916667 -5.82292,6.265625 -10.75,10.046875 -4.91667,3.770833 -8.54688,5.65625 -10.89063,5.65625 -2.33333,0 -4.161454,-0.6875 -5.484371,-2.0625 -1.3125,-1.375 -1.96875,-2.942708 -1.96875,-4.703125 0,-2.09375 2.197917,-6.729167 6.593751,-13.90625 6.60417,-10.666664 15.03646,-23.124996 25.29687,-37.374996 -2.16666,2.229167 -7.92187,8.255208 -17.26562,18.078125 C 89.874229,80.319668 77.785687,92.5905 74.296104,95.4655 c -0.572917,0.479167 -1.411458,0.71875 -2.515625,0.71875 -1.09375,0 -2.25,-0.447917 -3.46875,-1.34375 -1.21875,-0.90625 -1.828125,-1.916667 -1.828125,-3.03125 l 0,-0.25 c 0.135417,-1.427083 3.401042,-8.385417 9.796875,-20.875 6.395833,-12.489581 11.760417,-22.427079 16.09375,-29.812496 -6.395833,7.041667 -12.859375,14.895832 -19.390625,23.562496 -12.427083,16.458333 -21.520833,30.479167 -27.28125,42.0625 -0.510417,1.08333 -1.135417,1.625 -1.875,1.625 -0.75,0 -1.833333,-0.1875 -3.25,-0.5625 -2.979167,-0.8125 -4.46875,-2.23437 -4.46875,-4.26562 0,-1.21875 2.489583,-5.57813 7.46875,-13.07813 4.979167,-7.5 10.75,-15.692708 17.3125,-24.578125 6.572917,-8.885414 13.380208,-17.442704 20.421875,-25.671871 9.708333,-11.375 15.953125,-17.0625 18.734371,-17.0625 0.4375,0 0.85938,0.109375 1.26563,0.328125 0.40625,0.21875 0.66146,0.328125 0.76562,0.328125 0.10417,0 0.20313,-0.05208 0.29688,-0.15625 0.44792,-0.541667 1.32292,-0.8125 2.625,-0.8125 1.30208,0 2.56771,0.255208 3.79687,0.765625 1.23959,0.510417 1.85938,1.088542 1.85938,1.734375 0,0.40625 -1.69271,3.635417 -5.07813,9.6875 C 94.233604,54.892585 86.619021,68.705083 82.733604,76.2155 c 3.71875,-4.5 9.036458,-10.473957 15.953125,-17.921871 6.927081,-7.447917 14.203121,-14.880208 21.828121,-22.296875 9.91668,-9.614583 15.83855,-14.421875 17.76564,-14.421875 0.78125,0 1.76562,0.171875 2.95312,0.515625 2.09375,0.604167 4.10417,0.90625 6.03125,0.90625 0.54167,0.104167 1.00521,0.333333 1.39063,0.6875 0.39583,0.354167 0.59375,0.71875 0.59375,1.09375 0,0.375 -0.099,0.682292 -0.29688,0.921875 -11.01041,14.625 -20.29167,27.52604 -27.84376,38.70312 -7.54166,11.166667 -12.1927,18.713542 -13.95312,22.640625 3.55208,-0.75 8.84896,-5 15.89062,-12.75 0.30209,-0.40625 0.52084,-0.677083 0.65625,-0.8125 0.13542,-0.135417 0.25521,-0.270833 0.35938,-0.40625 0.57292,-0.677083 1.01562,-0.255208 1.32812,1.265625 0.13542,0.885417 0.22396,1.505208 0.26563,1.859375 0.0521,0.354167 0.10417,0.729167 0.15625,1.125 0.0521,0.385417 0.0781,0.645833 0.0781,0.781251 z m 41.38282,-19.859371 c 2.57292,0 3.85938,0.880208 3.85938,2.640625 0,0.947917 -0.21875,1.640625 -0.65625,2.078125 -0.4375,0.4375 -1.375,1.90104 -2.8125,4.390621 -1.4375,2.489583 -3.03125,5.671875 -4.78125,9.546875 -1.73958,3.875 -2.86458,7.1875 -3.375,9.9375 -0.10417,0.333333 -0.15625,0.807292 -0.15625,1.421875 0,1.854167 0.50521,2.78125 1.51562,2.78125 1.02084,0 2.22396,-0.479167 3.60938,-1.4375 1.39583,-0.96875 2.63542,-2 3.71875,-3.09375 1.08333,-1.104167 2.14062,-2.229167 3.17187,-3.375 1.03125,-1.15625 1.64584,-1.817708 1.84375,-1.984375 0.20834,-0.177083 0.51563,-0.265625 0.92188,-0.265625 0.64583,0 1.03646,0.494792 1.17187,1.484375 0.13542,0.979167 0.20313,1.994792 0.20313,3.046875 0,1.041667 -0.10417,1.765625 -0.3125,2.171875 -0.97917,1.9375 -3.13542,4.260417 -6.46875,6.96875 -3.33333,2.708333 -6.36458,4.0625 -9.09375,4.0625 -2.71875,0 -4.72396,-0.828125 -6.01563,-2.484375 -1.28125,-1.666667 -1.92187,-3.505208 -1.92187,-5.515625 0,-2.020833 0.33854,-3.791667 1.01562,-5.3125 -2.8125,3.65625 -6.04166,6.755208 -9.6875,9.296875 -3.63541,2.541667 -6.60416,3.8125 -8.90625,3.8125 -2.30208,0 -4.18229,-0.697917 -5.64062,-2.09375 -1.85417,-1.71875 -2.78126,-4.109375 -2.78126,-7.171875 0,-3.072917 0.68229,-6.15625 2.04688,-9.25 1.375,-3.09375 3.17709,-5.916667 5.40625,-8.46875 2.23959,-2.5625 4.69792,-4.895833 7.375,-7 5.61459,-4.395831 10.79167,-6.593746 15.53125,-6.593746 1.83334,0 3.32292,0.307292 4.46875,0.921875 1.15625,0.604167 1.88542,1.364583 2.1875,2.28125 0.8125,-1.21875 1.4948,-1.989583 2.04688,-2.3125 0.5625,-0.322917 1.40104,-0.484375 2.51562,-0.484375 z m -6.75,5.640625 c -5.79166,0 -11.78125,3.21354 -17.96875,9.640621 -2.20833,2.302083 -4.23437,5.0625 -6.07812,8.28125 -1.84375,3.21875 -2.76563,5.421875 -2.76563,6.609375 0,1.177083 0.33855,1.765625 1.01563,1.765625 0.94792,0 3.58854,-1.869792 7.92187,-5.609375 4.33334,-3.739583 7.21355,-6.489583 8.64063,-8.25 1.55208,-1.96875 4.63021,-6.114582 9.23437,-12.437496 z m 38.64844,-21.078125 0.90625,-0.109375 c 0.51042,0 0.91667,0.442708 1.21875,1.328125 0.30209,0.875 0.45313,1.46875 0.45313,1.78125 0,0.302083 -0.33854,0.875 -1.01563,1.71875 l -14.46875,22.046871 c 5.08334,-5.083331 10.24479,-8.791663 15.48438,-11.124996 2.03125,-0.885417 3.86979,-1.328125 5.51562,-1.328125 1.64584,0 2.96354,0.536458 3.95313,1.609375 1,1.0625 1.5,2.390625 1.5,3.984375 0,1.593747 -0.44271,3.557288 -1.32813,5.890621 -0.875,2.333333 -2.06771,4.822917 -3.57812,7.46875 -1.5,2.635417 -3.32813,5.291667 -5.48438,7.96875 -2.14583,2.677083 -4.39583,5.098958 -6.75,7.265625 -2.34375,2.166667 -4.90625,3.927083 -7.6875,5.28125 -2.77083,1.354167 -5.20833,2.03125 -7.3125,2.03125 -4.22916,0 -6.34375,-1.947917 -6.34375,-5.84375 -3.95833,6.0625 -8.52604,13.23958 -13.70312,21.53125 -5.1875,8.29167 -9.19234,12.67187 -9.56734,13.14063 -0.375,0.47916 -1.55689,0.30015 -1.80689,0.30015 -0.25,0 -0.86082,-0.37645 -1.38165,-0.67853 -0.53125,-0.30208 -4.42074,-6.44082 -4.99366,-7.15957 0,0 -0.1958,-3.00168 -0.20622,-4.35585 -0.0208,-1.35416 5.73278,7.00004 6.54528,5.61463 4.57292,-7.61459 12.99902,-24.132293 26.0511,-45.17396 13.05209,-21.041664 20.11979,-31.916663 21.20313,-32.624996 0.60416,-0.40625 1.21354,-0.609375 1.82812,-0.609375 z m 4.46875,23.359371 c 0,-0.708333 -0.33854,-1.0625 -1.01562,-1.0625 -1.83334,0 -5.70313,2.8125 -11.60938,8.4375 -5.90625,5.614583 -10.60416,10.739583 -14.09375,15.375 0.88542,1.083333 2.1875,1.625 3.90625,1.625 1.72917,0 3.96354,-0.932292 6.70313,-2.796875 2.75,-1.864583 5.29166,-4.072917 7.625,-6.625 2.33333,-2.552083 4.32812,-5.234375 5.98437,-8.046875 1.66667,-2.8125 2.5,-5.114583 2.5,-6.90625 z m 46.66016,-7.921871 c 2.57291,0 3.85937,0.880208 3.85937,2.640625 0,0.947917 -0.21875,1.640625 -0.65625,2.078125 -0.4375,0.4375 -1.375,1.90104 -2.8125,4.390621 -1.4375,2.489583 -3.03125,5.671875 -4.78125,9.546875 -1.73958,3.875 -2.86458,7.1875 -3.375,9.9375 -0.10416,0.333333 -0.15625,0.807292 -0.15625,1.421875 0,1.854167 0.50521,2.78125 1.51563,2.78125 1.02083,0 2.22396,-0.479167 3.60937,-1.4375 1.39584,-0.96875 2.63542,-2 3.71875,-3.09375 1.08334,-1.104167 2.14063,-2.229167 3.17188,-3.375 1.03125,-1.15625 1.64583,-1.817708 1.84375,-1.984375 0.20833,-0.177083 0.51562,-0.265625 0.92187,-0.265625 0.64584,0 1.03646,0.494792 1.17188,1.484375 0.13541,0.979167 0.20312,1.994792 0.20312,3.046875 0,1.041667 -0.10416,1.765625 -0.3125,2.171875 -0.97916,1.9375 -3.13541,4.260417 -6.46875,6.96875 -3.33333,2.708333 -6.36458,4.0625 -9.09375,4.0625 -2.71875,0 -4.72396,-0.828125 -6.01562,-2.484375 -1.28125,-1.666667 -1.92188,-3.505208 -1.92188,-5.515625 0,-2.020833 0.33854,-3.791667 1.01563,-5.3125 -2.8125,3.65625 -6.04167,6.755208 -9.6875,9.296875 -3.63542,2.541667 -6.60417,3.8125 -8.90625,3.8125 -2.30209,0 -4.18229,-0.697917 -5.64063,-2.09375 -1.85416,-1.71875 -2.78125,-4.109375 -2.78125,-7.171875 0,-3.072917 0.68229,-6.15625 2.04688,-9.25 1.375,-3.09375 3.17708,-5.916667 5.40625,-8.46875 2.23958,-2.5625 4.69791,-4.895833 7.375,-7 5.61458,-4.395831 10.79166,-6.593746 15.53125,-6.593746 1.83333,0 3.32291,0.307292 4.46875,0.921875 1.15625,0.604167 1.88541,1.364583 2.1875,2.28125 0.8125,-1.21875 1.49479,-1.989583 2.04687,-2.3125 0.5625,-0.322917 1.40104,-0.484375 2.51563,-0.484375 z m -6.75,5.640625 c -5.79167,0 -11.78125,3.21354 -17.96875,9.640621 -2.20834,2.302083 -4.23438,5.0625 -6.07813,8.28125 -1.84375,3.21875 -2.76562,5.421875 -2.76562,6.609375 0,1.177083 0.33854,1.765625 1.01562,1.765625 0.94792,0 3.58854,-1.869792 7.92188,-5.609375 4.33333,-3.739583 7.21354,-6.489583 8.64062,-8.25 1.55209,-1.96875 4.63021,-6.114582 9.23438,-12.437496 z" />
      <path
         id="path3410"
         d="m 59.299213,110.30708 181.700787,0 0,70.67717 -181.700787,0 z"
         inkscape:connector-curvature="0"
         style="fill:#000000;fill-opacity:0;fill-rule:nonzero" />
      <path
         id="path3412"
         d="m 64.33046,132.2552 q 0,-0.4375 0.09375,-0.6875 0.109375,-0.25 0.640625,-0.35938 0.546875,-0.10937 1.734375,-0.14062 1.203125,-0.0469 3.421875,-0.0469 l 0,21.75 11.453125,-21.39062 q 1.015625,-0.20313 1.984375,-0.3125 0.96875,-0.10938 1.765625,-0.10938 3.234375,0 2.375,1.71875 L 76.20546,152.7708 q 4.3125,3.23438 7.1875,10.125 2.890625,6.875 4.328125,17.23438 0.07813,0.79687 -0.390625,1.125 -0.46875,0.3125 -1.984375,0.3125 -1.9375,0 -4.109375,-0.21875 -1.578125,-8.42188 -3.3125,-13.95313 -1.71875,-5.54687 -4.75,-8.85937 -0.640625,-0.65625 -1.40625,-1.125 -0.75,-0.46875 -1.546875,-0.82813 l 0,23.6875 q 0,0.4375 -0.109375,0.6875 -0.09375,0.25 -0.640625,0.35938 -0.546875,0.10937 -1.734375,0.10937 -1.1875,0 -3.40625,0 l 0,-49.17187 z m 40.31163,29.375 q -0.5,-1.23438 -1.375,-3.78125 -0.85938,-2.5625 -1.875,-5.54688 -1,-2.98437 -1.96875,-5.96875 -0.96875,-3 -1.625,-5.07812 0.15625,1.71875 0.296875,4.89062 0.140625,3.17188 0.25,6.48438 0.109375,3.3125 0.140625,6.15625 0.03125,2.84375 0.03125,4 l 0,17.48437 q 0,0.4375 -0.109375,0.6875 -0.09375,0.25 -0.640625,0.35938 -0.546875,0.10937 -1.734375,0.10937 -1.1875,0 -3.34375,0 l 0,-49.17187 q 0,-1.23438 1.21875,-1.23438 l 4.46875,0 8.062495,19.45313 q 0.51563,1.4375 1.40625,4 0.90625,2.54687 1.90625,5.5 1.01563,2.95312 1.95313,5.875 0.9375,2.90625 1.57812,4.92187 l 0,-0.21875 q -0.21875,-1.57812 -0.32812,-4.67187 -0.10938,-3.09375 -0.21875,-6.375 -0.0937,-3.28125 -0.14063,-6.15625 -0.0312,-2.875 -0.0312,-4.17188 l 0,-16.92187 q 0,-0.4375 0.10938,-0.6875 0.10937,-0.25 0.6875,-0.35938 0.57812,-0.10937 1.76562,-0.14062 1.1875,-0.0469 3.34375,-0.0469 l 0,49.25 q 0,1.15625 -1.23437,1.15625 l -4.39063,0 -8.20312,-19.79687 z m 20.01489,-27.9375 q 0,-1.01563 0.10938,-1.54688 0.10937,-0.54687 0.64062,-0.79687 0.54688,-0.25 1.76563,-0.28125 1.23437,-0.0469 3.39062,-0.0469 l 0,49.25 q 0,0.4375 -0.10937,0.6875 -0.10938,0.25 -0.65625,0.35938 -0.53125,0.10937 -1.76563,0.10937 -1.21875,0 -3.375,0 l 0,-47.73437 z m 12.17414,-1.4375 q 0,-1.23438 1.21875,-1.23438 l 21.53125,0 q 0.28125,0.4375 0.42187,0.84375 0.15625,0.39063 0.15625,1.10938 0,1.4375 -0.57812,2.59375 l -18.35938,40.60937 13.89063,0 q 1.23437,0 2.3125,-0.0781 1.07812,-0.0781 1.9375,-0.4375 l 0,4.60937 q 0,0.51563 -0.21875,0.84375 -0.21875,0.3125 -1,0.3125 l -22.46875,0 q -0.35938,-0.35937 -0.65625,-0.9375 -0.28125,-0.57812 -0.28125,-1.35937 0,-1.23438 0.57812,-2.59375 l 18.07813,-40.25 -13.39063,0 q -1.01562,0 -1.84375,0.0312 -0.82812,0.0312 -1.32812,0.1875 l 0,-4.25 z m 39.59501,29.375 q -0.5,-1.23438 -1.375,-3.78125 -0.85937,-2.5625 -1.875,-5.54688 -1,-2.98437 -1.96875,-5.96875 -0.96875,-3 -1.625,-5.07812 0.15625,1.71875 0.29688,4.89062 0.14062,3.17188 0.25,6.48438 0.10937,3.3125 0.14062,6.15625 0.0312,2.84375 0.0312,4 l 0,17.48437 q 0,0.4375 -0.10937,0.6875 -0.0937,0.25 -0.64063,0.35938 -0.54687,0.10937 -1.73437,0.10937 -1.1875,0 -3.34375,0 l 0,-49.17187 q 0,-1.23438 1.21875,-1.23438 l 4.46875,0 8.0625,19.45313 q 0.51562,1.4375 1.40625,4 0.90625,2.54687 1.90625,5.5 1.01562,2.95312 1.95312,5.875 0.9375,2.90625 1.57813,4.92187 l 0,-0.21875 q -0.21875,-1.57812 -0.32813,-4.67187 -0.10937,-3.09375 -0.21875,-6.375 -0.0937,-3.28125 -0.14062,-6.15625 -0.0312,-2.875 -0.0312,-4.17188 l 0,-16.92187 q 0,-0.4375 0.10937,-0.6875 0.10938,-0.25 0.6875,-0.35938 0.57813,-0.10937 1.76563,-0.14062 1.1875,-0.0469 3.34375,-0.0469 l 0,49.25 q 0,1.15625 -1.23438,1.15625 l -4.39062,0 -8.20313,-19.79687 z m 20.01489,-27.9375 q 0,-1.01563 0.10938,-1.54688 0.10937,-0.54687 0.64062,-0.79687 0.54688,-0.25 1.76563,-0.28125 1.23437,-0.0469 3.39062,-0.0469 l 0,49.25 q 0,0.4375 -0.10937,0.6875 -0.10938,0.25 -0.65625,0.35938 -0.53125,0.10937 -1.76563,0.10937 -1.21875,0 -3.375,0 l 0,-47.73437 z m 2.14063,-7.23437 q -0.5,0 -0.90625,-0.5 -0.39063,-0.5 -0.6875,-1.15625 -0.35938,-0.71875 -0.64063,-1.65625 1.21875,-1.35938 2.79688,-2.875 1.59375,-1.51563 3.03125,-2.73438 1.4375,-1.23437 2.51562,-2.01562 1.09375,-0.79688 1.29688,-0.79688 0.51562,0 0.98437,0.4375 0.46875,0.42188 0.78125,1.10938 0.32813,0.6875 0.57813,1.45312 0.25,0.75 0.32812,1.39063 -0.4375,0.5 -1.73437,1.51562 -1.29688,1 -2.84375,2.15625 -1.54688,1.15625 -3.0625,2.17188 -1.5,1 -2.4375,1.5 z m 23.28351,3.84374 q 2.01562,0 3.3125,0.35938 1.29687,0.35937 2.04687,0.9375 0.75,0.57812 1.07813,1.26562 0.32812,0.6875 0.32812,1.40625 0,1 -0.29687,1.9375 -0.28125,0.9375 -0.64063,1.59375 -0.57812,-0.51562 -1.8125,-1.15625 -1.21875,-0.65625 -2.875,-0.65625 -1.71875,0 -3.34375,0.79688 -1.625,0.79687 -2.92187,3.10937 -1.28125,2.29688 -2.07813,6.65625 -0.79687,4.34375 -0.79687,11.46875 0,5.48438 0.53125,8.98438 0.54687,3.48437 1.48437,5.46875 0.9375,1.96875 2.26563,2.57812 1.34375,0.60938 2.92187,0.60938 2.09375,0 3.84375,-0.71875 1.76563,-0.71875 2.78125,-1.5 0.35938,0.71875 0.60938,1.65625 0.25,0.92187 0.25,1.85937 0,2.09375 -2.45313,3.64063 -2.4375,1.54687 -6.46875,1.54687 -2.59375,0.21875 -4.76562,-0.60937 -2.15625,-0.82813 -3.78125,-3.34375 -1.60938,-2.53125 -2.51563,-7.28125 -0.89062,-4.75 -0.89062,-12.59375 0,-9.21875 1.32812,-14.79688 1.32813,-5.57812 3.375,-8.5625 2.0625,-3 4.57813,-3.82812 2.53125,-0.82813 4.90625,-0.82813 z"
         inkscape:connector-curvature="0"
         style="fill:#000000;fill-rule:nonzero" />
    </g>
  </g>
</svg>
